<?xml version="1.0" standalone="no"?>
<!DOCTYPE svg PUBLIC "-//W3C//DTD SVG 1.1//EN" "http://www.w3.org/Graphics/SVG/1.1/DTD/svg11.dtd">
<svg width="3000px" height="3000px" version="1.1" xmlns="http://www.w3.org/2000/svg" xmlns:xlink="http://www.w3.org/1999/xlink">
<g id="ideograms">
<g id="highlight0">
<path d="M 1500.000,215.000 A1285.000,1285.000 0.000 0,1 1844.220,261.962 L 1850.917,237.876 A1310.000,1310.000 0.000 0,0 1500.000,190.000 Z " style="stroke-width: 2.0; stroke: rgb(0,0,0); fill: rgb(0,255,198); " />
<path d="M 1844.220,261.962 A1285.000,1285.000 0.000 0,1 2123.889,376.618 L 2136.027,354.762 A1310.000,1310.000 0.000 0,0 1850.917,237.876 Z " style="stroke-width: 2.0; stroke: rgb(0,0,0); fill: rgb(0,170,255); " />
<path d="M 2123.889,376.618 A1285.000,1285.000 0.000 0,1 2348.941,535.363 L 2365.457,516.596 A1310.000,1310.000 0.000 0,0 2136.027,354.762 Z " style="stroke-width: 2.0; stroke: rgb(0,0,0); fill: rgb(0,28,255); " />
<path d="M 2348.941,535.363 A1285.000,1285.000 0.000 0,1 2444.536,628.750 L 2462.913,611.800 A1310.000,1310.000 0.000 0,0 2365.457,516.596 Z " style="stroke-width: 2.0; stroke: rgb(0,0,0); fill: rgb(113,0,255); " />
<path d="M 2444.536,628.750 A1285.000,1285.000 0.000 0,1 2522.210,721.340 L 2542.097,706.191 A1310.000,1310.000 0.000 0,0 2462.913,611.800 Z " style="stroke-width: 2.0; stroke: rgb(0,0,0); fill: rgb(255,0,255); " />
</g>
<path d="M 1500.000,275.000 A1225.000,1225.000 0.000 0,1 2474.480,757.697 L 2514.255,727.399 A1275.000,1275.000 0.000 0,0 1500.000,225.000 Z " style="stroke: none;  fill: rgb(255,0,0); " />
<g id="highlight0">
<path d="M 1500.000,215.000 A1285.000,1285.000 0.000 0,1 1844.220,261.962 L 1850.917,237.876 A1310.000,1310.000 0.000 0,0 1500.000,190.000 Z " style="stroke-width: 2.0; stroke: rgb(0,0,0); fill: rgb(0,255,198); " />
<path d="M 1844.220,261.962 A1285.000,1285.000 0.000 0,1 2123.889,376.618 L 2136.027,354.762 A1310.000,1310.000 0.000 0,0 1850.917,237.876 Z " style="stroke-width: 2.0; stroke: rgb(0,0,0); fill: rgb(0,170,255); " />
<path d="M 2123.889,376.618 A1285.000,1285.000 0.000 0,1 2348.941,535.363 L 2365.457,516.596 A1310.000,1310.000 0.000 0,0 2136.027,354.762 Z " style="stroke-width: 2.0; stroke: rgb(0,0,0); fill: rgb(0,28,255); " />
<path d="M 2348.941,535.363 A1285.000,1285.000 0.000 0,1 2444.536,628.750 L 2462.913,611.800 A1310.000,1310.000 0.000 0,0 2365.457,516.596 Z " style="stroke-width: 2.0; stroke: rgb(0,0,0); fill: rgb(113,0,255); " />
<path d="M 2444.536,628.750 A1285.000,1285.000 0.000 0,1 2522.210,721.340 L 2542.097,706.191 A1310.000,1310.000 0.000 0,0 2462.913,611.800 Z " style="stroke-width: 2.0; stroke: rgb(0,0,0); fill: rgb(255,0,255); " />
</g>
<path d="M 1500.000,275.000 A1225.000,1225.000 0.000 0,1 2474.480,757.697 L 2514.255,727.399 A1275.000,1275.000 0.000 0,0 1500.000,225.000 Z " style="stroke: none;  fill: none; " />
<g id="highlight0">
<path d="M 2534.022,737.096 A1285.000,1285.000 0.000 0,1 2647.173,921.019 L 2669.492,909.755 A1310.000,1310.000 0.000 0,0 2554.139,722.253 Z " style="stroke-width: 2.0; stroke: rgb(0,0,0); fill: rgb(0,170,255); " />
<path d="M 2647.173,921.019 A1285.000,1285.000 0.000 0,1 2725.386,1113.147 L 2749.226,1105.621 A1310.000,1310.000 0.000 0,0 2669.492,909.755 Z " style="stroke-width: 2.0; stroke: rgb(0,0,0); fill: rgb(0,255,198); " />
<path d="M 2725.386,1113.147 A1285.000,1285.000 0.000 0,1 2768.876,1297.077 L 2793.563,1293.129 A1310.000,1310.000 0.000 0,0 2749.226,1105.621 Z " style="stroke-width: 2.0; stroke: rgb(0,0,0); fill: rgb(255,0,255); " />
<path d="M 2768.876,1297.077 A1285.000,1285.000 0.000 0,1 2784.497,1464.065 L 2809.488,1463.366 A1310.000,1310.000 0.000 0,0 2793.563,1293.129 Z " style="stroke-width: 2.0; stroke: rgb(0,0,0); fill: rgb(0,28,255); " />
<path d="M 2784.497,1464.065 A1285.000,1285.000 0.000 0,1 2781.703,1591.993 L 2806.639,1593.783 A1310.000,1310.000 0.000 0,0 2809.488,1463.366 Z " style="stroke-width: 2.0; stroke: rgb(0,0,0); fill: rgb(113,0,255); " />
</g>
<path d="M 2485.741,772.718 A1225.000,1225.000 0.000 0,1 2721.857,1587.698 L 2771.729,1591.278 A1275.000,1275.000 0.000 0,0 2525.975,743.033 Z " style="stroke: none;  fill: rgb(255,142,0); " />
<g id="highlight0">
<path d="M 2534.022,737.096 A1285.000,1285.000 0.000 0,1 2647.173,921.019 L 2669.492,909.755 A1310.000,1310.000 0.000 0,0 2554.139,722.253 Z " style="stroke-width: 2.0; stroke: rgb(0,0,0); fill: rgb(0,170,255); " />
<path d="M 2647.173,921.019 A1285.000,1285.000 0.000 0,1 2725.386,1113.147 L 2749.226,1105.621 A1310.000,1310.000 0.000 0,0 2669.492,909.755 Z " style="stroke-width: 2.0; stroke: rgb(0,0,0); fill: rgb(0,255,198); " />
<path d="M 2725.386,1113.147 A1285.000,1285.000 0.000 0,1 2768.876,1297.077 L 2793.563,1293.129 A1310.000,1310.000 0.000 0,0 2749.226,1105.621 Z " style="stroke-width: 2.0; stroke: rgb(0,0,0); fill: rgb(255,0,255); " />
<path d="M 2768.876,1297.077 A1285.000,1285.000 0.000 0,1 2784.497,1464.065 L 2809.488,1463.366 A1310.000,1310.000 0.000 0,0 2793.563,1293.129 Z " style="stroke-width: 2.0; stroke: rgb(0,0,0); fill: rgb(0,28,255); " />
<path d="M 2784.497,1464.065 A1285.000,1285.000 0.000 0,1 2781.703,1591.993 L 2806.639,1593.783 A1310.000,1310.000 0.000 0,0 2809.488,1463.366 Z " style="stroke-width: 2.0; stroke: rgb(0,0,0); fill: rgb(113,0,255); " />
</g>
<path d="M 2485.741,772.718 A1225.000,1225.000 0.000 0,1 2721.857,1587.698 L 2771.729,1591.278 A1275.000,1275.000 0.000 0,0 2525.975,743.033 Z " style="stroke: none;  fill: none; " />
<g id="highlight0">
<path d="M 2780.143,1611.624 A1285.000,1285.000 0.000 0,1 2723.091,1894.049 L 2746.886,1901.715 A1310.000,1310.000 0.000 0,0 2805.048,1613.795 Z " style="stroke-width: 2.0; stroke: rgb(0,0,0); fill: rgb(0,255,198); " />
<path d="M 2723.091,1894.049 A1285.000,1285.000 0.000 0,1 2672.078,2026.743 L 2694.881,2036.991 A1310.000,1310.000 0.000 0,0 2746.886,1901.715 Z " style="stroke-width: 2.0; stroke: rgb(0,0,0); fill: rgb(0,170,255); " />
<path d="M 2672.078,2026.743 A1285.000,1285.000 0.000 0,1 2608.882,2149.312 L 2630.455,2161.945 A1310.000,1310.000 0.000 0,0 2694.881,2036.991 Z " style="stroke-width: 2.0; stroke: rgb(0,0,0); fill: rgb(0,28,255); " />
<path d="M 2608.882,2149.312 A1285.000,1285.000 0.000 0,1 2546.290,2245.991 L 2566.646,2260.504 A1310.000,1310.000 0.000 0,0 2630.455,2161.945 Z " style="stroke-width: 2.0; stroke: rgb(0,0,0); fill: rgb(255,0,255); " />
<path d="M 2546.290,2245.991 A1285.000,1285.000 0.000 0,1 2477.143,2334.516 L 2496.154,2350.751 A1310.000,1310.000 0.000 0,0 2566.646,2260.504 Z " style="stroke-width: 2.0; stroke: rgb(0,0,0); fill: rgb(113,0,255); " />
</g>
<path d="M 2720.369,1606.412 A1225.000,1225.000 0.000 0,1 2431.518,2295.550 L 2469.539,2328.021 A1275.000,1275.000 0.000 0,0 2770.180,1610.755 Z " style="stroke: none;  fill: rgb(227,255,0); " />
<g id="highlight0">
<path d="M 2780.143,1611.624 A1285.000,1285.000 0.000 0,1 2723.091,1894.049 L 2746.886,1901.715 A1310.000,1310.000 0.000 0,0 2805.048,1613.795 Z " style="stroke-width: 2.0; stroke: rgb(0,0,0); fill: rgb(0,255,198); " />
<path d="M 2723.091,1894.049 A1285.000,1285.000 0.000 0,1 2672.078,2026.743 L 2694.881,2036.991 A1310.000,1310.000 0.000 0,0 2746.886,1901.715 Z " style="stroke-width: 2.0; stroke: rgb(0,0,0); fill: rgb(0,170,255); " />
<path d="M 2672.078,2026.743 A1285.000,1285.000 0.000 0,1 2608.882,2149.312 L 2630.455,2161.945 A1310.000,1310.000 0.000 0,0 2694.881,2036.991 Z " style="stroke-width: 2.0; stroke: rgb(0,0,0); fill: rgb(0,28,255); " />
<path d="M 2608.882,2149.312 A1285.000,1285.000 0.000 0,1 2546.290,2245.991 L 2566.646,2260.504 A1310.000,1310.000 0.000 0,0 2630.455,2161.945 Z " style="stroke-width: 2.0; stroke: rgb(0,0,0); fill: rgb(255,0,255); " />
<path d="M 2546.290,2245.991 A1285.000,1285.000 0.000 0,1 2477.143,2334.516 L 2496.154,2350.751 A1310.000,1310.000 0.000 0,0 2566.646,2260.504 Z " style="stroke-width: 2.0; stroke: rgb(0,0,0); fill: rgb(113,0,255); " />
</g>
<path d="M 2720.369,1606.412 A1225.000,1225.000 0.000 0,1 2431.518,2295.550 L 2469.539,2328.021 A1275.000,1275.000 0.000 0,0 2770.180,1610.755 Z " style="stroke: none;  fill: none; " />
<g id="highlight0">
<path d="M 2464.240,2349.392 A1285.000,1285.000 0.000 0,1 2282.702,2519.119 L 2297.930,2538.946 A1310.000,1310.000 0.000 0,0 2482.999,2365.917 Z " style="stroke-width: 2.0; stroke: rgb(0,0,0); fill: rgb(113,0,255); " />
<path d="M 2282.702,2519.119 A1285.000,1285.000 0.000 0,1 2148.222,2609.519 L 2160.834,2631.105 A1310.000,1310.000 0.000 0,0 2297.930,2538.946 Z " style="stroke-width: 2.0; stroke: rgb(0,0,0); fill: rgb(0,255,198); " />
<path d="M 2148.222,2609.519 A1285.000,1285.000 0.000 0,1 2046.275,2663.103 L 2056.903,2685.732 A1310.000,1310.000 0.000 0,0 2160.834,2631.105 Z " style="stroke-width: 2.0; stroke: rgb(0,0,0); fill: rgb(0,170,255); " />
<path d="M 2046.275,2663.103 A1285.000,1285.000 0.000 0,1 1946.614,2704.890 L 1955.303,2728.332 A1310.000,1310.000 0.000 0,0 2056.903,2685.732 Z " style="stroke-width: 2.0; stroke: rgb(0,0,0); fill: rgb(0,28,255); " />
<path d="M 1946.614,2704.890 A1285.000,1285.000 0.000 0,1 1891.493,2723.911 L 1899.109,2747.723 A1310.000,1310.000 0.000 0,0 1955.303,2728.332 Z " style="stroke-width: 2.0; stroke: rgb(0,0,0); fill: rgb(255,0,255); " />
</g>
<path d="M 2419.217,2309.731 A1225.000,1225.000 0.000 0,1 1873.213,2666.764 L 1888.446,2714.387 A1275.000,1275.000 0.000 0,0 2456.736,2342.782 Z " style="stroke: none;  fill: rgb(85,255,0); " />
<g id="highlight0">
<path d="M 2464.240,2349.392 A1285.000,1285.000 0.000 0,1 2282.702,2519.119 L 2297.930,2538.946 A1310.000,1310.000 0.000 0,0 2482.999,2365.917 Z " style="stroke-width: 2.0; stroke: rgb(0,0,0); fill: rgb(113,0,255); " />
<path d="M 2282.702,2519.119 A1285.000,1285.000 0.000 0,1 2148.222,2609.519 L 2160.834,2631.105 A1310.000,1310.000 0.000 0,0 2297.930,2538.946 Z " style="stroke-width: 2.0; stroke: rgb(0,0,0); fill: rgb(0,255,198); " />
<path d="M 2148.222,2609.519 A1285.000,1285.000 0.000 0,1 2046.275,2663.103 L 2056.903,2685.732 A1310.000,1310.000 0.000 0,0 2160.834,2631.105 Z " style="stroke-width: 2.0; stroke: rgb(0,0,0); fill: rgb(0,170,255); " />
<path d="M 2046.275,2663.103 A1285.000,1285.000 0.000 0,1 1946.614,2704.890 L 1955.303,2728.332 A1310.000,1310.000 0.000 0,0 2056.903,2685.732 Z " style="stroke-width: 2.0; stroke: rgb(0,0,0); fill: rgb(0,28,255); " />
<path d="M 1946.614,2704.890 A1285.000,1285.000 0.000 0,1 1891.493,2723.911 L 1899.109,2747.723 A1310.000,1310.000 0.000 0,0 1955.303,2728.332 Z " style="stroke-width: 2.0; stroke: rgb(0,0,0); fill: rgb(255,0,255); " />
</g>
<path d="M 2419.217,2309.731 A1225.000,1225.000 0.000 0,1 1873.213,2666.764 L 1888.446,2714.387 A1275.000,1275.000 0.000 0,0 2456.736,2342.782 Z " style="stroke: none;  fill: none; " />
<g id="highlight0">
<path d="M 1872.691,2729.767 A1285.000,1285.000 0.000 0,1 1766.652,2757.029 L 1771.840,2781.485 A1310.000,1310.000 0.000 0,0 1879.942,2753.692 Z " style="stroke-width: 2.0; stroke: rgb(0,0,0); fill: rgb(0,170,255); " />
<path d="M 1766.652,2757.029 A1285.000,1285.000 0.000 0,1 1685.457,2771.547 L 1689.065,2796.285 A1310.000,1310.000 0.000 0,0 1771.840,2781.485 Z " style="stroke-width: 2.0; stroke: rgb(0,0,0); fill: rgb(0,28,255); " />
<path d="M 1685.457,2771.547 A1285.000,1285.000 0.000 0,1 1612.003,2780.110 L 1614.182,2805.014 A1310.000,1310.000 0.000 0,0 1689.065,2796.285 Z " style="stroke-width: 2.0; stroke: rgb(0,0,0); fill: rgb(113,0,255); " />
<path d="M 1612.003,2780.110 A1285.000,1285.000 0.000 0,1 1558.076,2783.687 L 1559.206,2808.661 A1310.000,1310.000 0.000 0,0 1614.182,2805.014 Z " style="stroke-width: 2.0; stroke: rgb(0,0,0); fill: rgb(0,255,198); " />
<path d="M 1558.076,2783.687 A1285.000,1285.000 0.000 0,1 1519.692,2784.849 L 1520.075,2809.846 A1310.000,1310.000 0.000 0,0 1559.206,2808.661 Z " style="stroke-width: 2.0; stroke: rgb(0,0,0); fill: rgb(255,0,255); " />
</g>
<path d="M 1855.289,2672.346 A1225.000,1225.000 0.000 0,1 1518.772,2724.856 L 1519.538,2774.850 A1275.000,1275.000 0.000 0,0 1869.791,2720.197 Z " style="stroke: none;  fill: rgb(0,255,57); " />
<g id="highlight0">
<path d="M 1872.691,2729.767 A1285.000,1285.000 0.000 0,1 1766.652,2757.029 L 1771.840,2781.485 A1310.000,1310.000 0.000 0,0 1879.942,2753.692 Z " style="stroke-width: 2.0; stroke: rgb(0,0,0); fill: rgb(0,170,255); " />
<path d="M 1766.652,2757.029 A1285.000,1285.000 0.000 0,1 1685.457,2771.547 L 1689.065,2796.285 A1310.000,1310.000 0.000 0,0 1771.840,2781.485 Z " style="stroke-width: 2.0; stroke: rgb(0,0,0); fill: rgb(0,28,255); " />
<path d="M 1685.457,2771.547 A1285.000,1285.000 0.000 0,1 1612.003,2780.110 L 1614.182,2805.014 A1310.000,1310.000 0.000 0,0 1689.065,2796.285 Z " style="stroke-width: 2.0; stroke: rgb(0,0,0); fill: rgb(113,0,255); " />
<path d="M 1612.003,2780.110 A1285.000,1285.000 0.000 0,1 1558.076,2783.687 L 1559.206,2808.661 A1310.000,1310.000 0.000 0,0 1614.182,2805.014 Z " style="stroke-width: 2.0; stroke: rgb(0,0,0); fill: rgb(0,255,198); " />
<path d="M 1558.076,2783.687 A1285.000,1285.000 0.000 0,1 1519.692,2784.849 L 1520.075,2809.846 A1310.000,1310.000 0.000 0,0 1559.206,2808.661 Z " style="stroke-width: 2.0; stroke: rgb(0,0,0); fill: rgb(255,0,255); " />
</g>
<path d="M 1855.289,2672.346 A1225.000,1225.000 0.000 0,1 1518.772,2724.856 L 1519.538,2774.850 A1275.000,1275.000 0.000 0,0 1869.791,2720.197 Z " style="stroke: none;  fill: none; " />
<g id="highlight0">
<path d="M 1500.000,2785.000 A1285.000,1285.000 0.000 0,1 1155.780,2738.038 L 1149.083,2762.124 A1310.000,1310.000 0.000 0,0 1500.000,2810.000 Z " style="stroke-width: 2.0; stroke: rgb(0,0,0); fill: rgb(255,0,0); " />
<path d="M 1155.780,2738.038 A1285.000,1285.000 0.000 0,1 888.584,2630.219 L 876.688,2652.208 A1310.000,1310.000 0.000 0,0 1149.083,2762.124 Z " style="stroke-width: 2.0; stroke: rgb(0,0,0); fill: rgb(227,255,0); " />
<path d="M 888.584,2630.219 A1285.000,1285.000 0.000 0,1 714.695,2517.114 L 699.416,2536.902 A1310.000,1310.000 0.000 0,0 876.688,2652.208 Z " style="stroke-width: 2.0; stroke: rgb(0,0,0); fill: rgb(255,142,0); " />
<path d="M 714.695,2517.114 A1285.000,1285.000 0.000 0,1 592.934,2410.196 L 575.287,2427.904 A1310.000,1310.000 0.000 0,0 699.416,2536.902 Z " style="stroke-width: 2.0; stroke: rgb(0,0,0); fill: rgb(85,255,0); " />
<path d="M 592.934,2410.196 A1285.000,1285.000 0.000 0,1 555.464,2371.250 L 537.087,2388.200 A1310.000,1310.000 0.000 0,0 575.287,2427.904 Z " style="stroke-width: 2.0; stroke: rgb(0,0,0); fill: rgb(0,255,57); " />
</g>
<path d="M 1500.000,2725.000 A1225.000,1225.000 0.000 0,1 599.566,2330.569 L 562.814,2364.469 A1275.000,1275.000 0.000 0,0 1500.000,2775.000 Z " style="stroke: none;  fill: rgb(0,255,198); " />
<g id="highlight0">
<path d="M 1500.000,2785.000 A1285.000,1285.000 0.000 0,1 1155.780,2738.038 L 1149.083,2762.124 A1310.000,1310.000 0.000 0,0 1500.000,2810.000 Z " style="stroke-width: 2.0; stroke: rgb(0,0,0); fill: rgb(255,0,0); " />
<path d="M 1155.780,2738.038 A1285.000,1285.000 0.000 0,1 888.584,2630.219 L 876.688,2652.208 A1310.000,1310.000 0.000 0,0 1149.083,2762.124 Z " style="stroke-width: 2.0; stroke: rgb(0,0,0); fill: rgb(227,255,0); " />
<path d="M 888.584,2630.219 A1285.000,1285.000 0.000 0,1 714.695,2517.114 L 699.416,2536.902 A1310.000,1310.000 0.000 0,0 876.688,2652.208 Z " style="stroke-width: 2.0; stroke: rgb(0,0,0); fill: rgb(255,142,0); " />
<path d="M 714.695,2517.114 A1285.000,1285.000 0.000 0,1 592.934,2410.196 L 575.287,2427.904 A1310.000,1310.000 0.000 0,0 699.416,2536.902 Z " style="stroke-width: 2.0; stroke: rgb(0,0,0); fill: rgb(85,255,0); " />
<path d="M 592.934,2410.196 A1285.000,1285.000 0.000 0,1 555.464,2371.250 L 537.087,2388.200 A1310.000,1310.000 0.000 0,0 575.287,2427.904 Z " style="stroke-width: 2.0; stroke: rgb(0,0,0); fill: rgb(0,255,57); " />
</g>
<path d="M 1500.000,2725.000 A1225.000,1225.000 0.000 0,1 599.566,2330.569 L 562.814,2364.469 A1275.000,1275.000 0.000 0,0 1500.000,2775.000 Z " style="stroke: none;  fill: none; " />
<g id="highlight0">
<path d="M 542.223,2356.673 A1285.000,1285.000 0.000 0,1 368.611,2109.248 L 346.599,2121.101 A1310.000,1310.000 0.000 0,0 523.589,2373.340 Z " style="stroke-width: 2.0; stroke: rgb(0,0,0); fill: rgb(255,0,0); " />
<path d="M 368.611,2109.248 A1285.000,1285.000 0.000 0,1 282.565,1911.189 L 258.879,1919.189 A1310.000,1310.000 0.000 0,0 346.599,2121.101 Z " style="stroke-width: 2.0; stroke: rgb(0,0,0); fill: rgb(255,142,0); " />
<path d="M 282.565,1911.189 A1285.000,1285.000 0.000 0,1 244.594,1774.192 L 220.170,1779.526 A1310.000,1310.000 0.000 0,0 258.879,1919.189 Z " style="stroke-width: 2.0; stroke: rgb(0,0,0); fill: rgb(227,255,0); " />
<path d="M 244.594,1774.192 A1285.000,1285.000 0.000 0,1 225.086,1660.684 L 200.282,1663.810 A1310.000,1310.000 0.000 0,0 220.170,1779.526 Z " style="stroke-width: 2.0; stroke: rgb(0,0,0); fill: rgb(85,255,0); " />
<path d="M 225.086,1660.684 A1285.000,1285.000 0.000 0,1 216.035,1551.571 L 191.055,1552.575 A1310.000,1310.000 0.000 0,0 200.282,1663.810 Z " style="stroke-width: 2.0; stroke: rgb(0,0,0); fill: rgb(0,255,57); " />
</g>
<path d="M 586.944,2316.673 A1225.000,1225.000 0.000 0,1 275.987,1549.163 L 226.027,1551.170 A1275.000,1275.000 0.000 0,0 549.677,2350.006 Z " style="stroke: none;  fill: rgb(0,170,255); " />
<g id="highlight0">
<path d="M 542.223,2356.673 A1285.000,1285.000 0.000 0,1 368.611,2109.248 L 346.599,2121.101 A1310.000,1310.000 0.000 0,0 523.589,2373.340 Z " style="stroke-width: 2.0; stroke: rgb(0,0,0); fill: rgb(255,0,0); " />
<path d="M 368.611,2109.248 A1285.000,1285.000 0.000 0,1 282.565,1911.189 L 258.879,1919.189 A1310.000,1310.000 0.000 0,0 346.599,2121.101 Z " style="stroke-width: 2.0; stroke: rgb(0,0,0); fill: rgb(255,142,0); " />
<path d="M 282.565,1911.189 A1285.000,1285.000 0.000 0,1 244.594,1774.192 L 220.170,1779.526 A1310.000,1310.000 0.000 0,0 258.879,1919.189 Z " style="stroke-width: 2.0; stroke: rgb(0,0,0); fill: rgb(227,255,0); " />
<path d="M 244.594,1774.192 A1285.000,1285.000 0.000 0,1 225.086,1660.684 L 200.282,1663.810 A1310.000,1310.000 0.000 0,0 220.170,1779.526 Z " style="stroke-width: 2.0; stroke: rgb(0,0,0); fill: rgb(85,255,0); " />
<path d="M 225.086,1660.684 A1285.000,1285.000 0.000 0,1 216.035,1551.571 L 191.055,1552.575 A1310.000,1310.000 0.000 0,0 200.282,1663.810 Z " style="stroke-width: 2.0; stroke: rgb(0,0,0); fill: rgb(0,255,57); " />
</g>
<path d="M 586.944,2316.673 A1225.000,1225.000 0.000 0,1 275.987,1549.163 L 226.027,1551.170 A1275.000,1275.000 0.000 0,0 549.677,2350.006 Z " style="stroke: none;  fill: none; " />
<g id="highlight0">
<path d="M 215.396,1531.889 A1285.000,1285.000 0.000 0,1 238.104,1257.421 L 213.554,1252.702 A1310.000,1310.000 0.000 0,0 190.403,1532.510 Z " style="stroke-width: 2.0; stroke: rgb(0,0,0); fill: rgb(255,0,0); " />
<path d="M 238.104,1257.421 A1285.000,1285.000 0.000 0,1 280.447,1095.136 L 256.720,1087.260 A1310.000,1310.000 0.000 0,0 213.554,1252.702 Z " style="stroke-width: 2.0; stroke: rgb(0,0,0); fill: rgb(255,142,0); " />
<path d="M 280.447,1095.136 A1285.000,1285.000 0.000 0,1 330.855,966.778 L 308.109,956.404 A1310.000,1310.000 0.000 0,0 256.720,1087.260 Z " style="stroke-width: 2.0; stroke: rgb(0,0,0); fill: rgb(227,255,0); " />
<path d="M 330.855,966.778 A1285.000,1285.000 0.000 0,1 379.793,870.427 L 357.999,858.179 A1310.000,1310.000 0.000 0,0 308.109,956.404 Z " style="stroke-width: 2.0; stroke: rgb(0,0,0); fill: rgb(85,255,0); " />
<path d="M 379.793,870.427 A1285.000,1285.000 0.000 0,1 422.491,799.857 L 401.528,786.236 A1310.000,1310.000 0.000 0,0 357.999,858.179 Z " style="stroke-width: 2.0; stroke: rgb(0,0,0); fill: rgb(0,255,57); " />
</g>
<path d="M 275.377,1530.400 A1225.000,1225.000 0.000 0,1 472.803,832.549 L 430.877,805.306 A1275.000,1275.000 0.000 0,0 225.393,1531.641 Z " style="stroke: none;  fill: rgb(0,28,255); " />
<g id="highlight0">
<path d="M 215.396,1531.889 A1285.000,1285.000 0.000 0,1 238.104,1257.421 L 213.554,1252.702 A1310.000,1310.000 0.000 0,0 190.403,1532.510 Z " style="stroke-width: 2.0; stroke: rgb(0,0,0); fill: rgb(255,0,0); " />
<path d="M 238.104,1257.421 A1285.000,1285.000 0.000 0,1 280.447,1095.136 L 256.720,1087.260 A1310.000,1310.000 0.000 0,0 213.554,1252.702 Z " style="stroke-width: 2.0; stroke: rgb(0,0,0); fill: rgb(255,142,0); " />
<path d="M 280.447,1095.136 A1285.000,1285.000 0.000 0,1 330.855,966.778 L 308.109,956.404 A1310.000,1310.000 0.000 0,0 256.720,1087.260 Z " style="stroke-width: 2.0; stroke: rgb(0,0,0); fill: rgb(227,255,0); " />
<path d="M 330.855,966.778 A1285.000,1285.000 0.000 0,1 379.793,870.427 L 357.999,858.179 A1310.000,1310.000 0.000 0,0 308.109,956.404 Z " style="stroke-width: 2.0; stroke: rgb(0,0,0); fill: rgb(85,255,0); " />
<path d="M 379.793,870.427 A1285.000,1285.000 0.000 0,1 422.491,799.857 L 401.528,786.236 A1310.000,1310.000 0.000 0,0 357.999,858.179 Z " style="stroke-width: 2.0; stroke: rgb(0,0,0); fill: rgb(0,255,57); " />
</g>
<path d="M 275.377,1530.400 A1225.000,1225.000 0.000 0,1 472.803,832.549 L 430.877,805.306 A1275.000,1275.000 0.000 0,0 225.393,1531.641 Z " style="stroke: none;  fill: none; " />
<g id="highlight0">
<path d="M 433.347,783.427 A1285.000,1285.000 0.000 0,1 591.233,591.502 L 573.553,573.827 A1310.000,1310.000 0.000 0,0 412.595,769.486 Z " style="stroke-width: 2.0; stroke: rgb(0,0,0); fill: rgb(85,255,0); " />
<path d="M 591.233,591.502 A1285.000,1285.000 0.000 0,1 690.504,502.031 L 674.755,482.616 A1310.000,1310.000 0.000 0,0 573.553,573.827 Z " style="stroke-width: 2.0; stroke: rgb(0,0,0); fill: rgb(255,0,0); " />
<path d="M 690.504,502.031 A1285.000,1285.000 0.000 0,1 793.771,426.471 L 780.031,405.585 A1310.000,1310.000 0.000 0,0 674.755,482.616 Z " style="stroke-width: 2.0; stroke: rgb(0,0,0); fill: rgb(255,142,0); " />
<path d="M 793.771,426.471 A1285.000,1285.000 0.000 0,1 890.223,368.896 L 878.360,346.890 A1310.000,1310.000 0.000 0,0 780.031,405.585 Z " style="stroke-width: 2.0; stroke: rgb(0,0,0); fill: rgb(227,255,0); " />
<path d="M 890.223,368.896 A1285.000,1285.000 0.000 0,1 956.301,335.690 L 945.723,313.039 A1310.000,1310.000 0.000 0,0 878.360,346.890 Z " style="stroke-width: 2.0; stroke: rgb(0,0,0); fill: rgb(0,255,57); " />
</g>
<path d="M 483.152,816.886 A1225.000,1225.000 0.000 0,1 981.688,390.055 L 960.532,344.751 A1275.000,1275.000 0.000 0,0 441.648,789.004 Z " style="stroke: none;  fill: rgb(113,0,255); " />
<g id="highlight0">
<path d="M 433.347,783.427 A1285.000,1285.000 0.000 0,1 591.233,591.502 L 573.553,573.827 A1310.000,1310.000 0.000 0,0 412.595,769.486 Z " style="stroke-width: 2.0; stroke: rgb(0,0,0); fill: rgb(85,255,0); " />
<path d="M 591.233,591.502 A1285.000,1285.000 0.000 0,1 690.504,502.031 L 674.755,482.616 A1310.000,1310.000 0.000 0,0 573.553,573.827 Z " style="stroke-width: 2.0; stroke: rgb(0,0,0); fill: rgb(255,0,0); " />
<path d="M 690.504,502.031 A1285.000,1285.000 0.000 0,1 793.771,426.471 L 780.031,405.585 A1310.000,1310.000 0.000 0,0 674.755,482.616 Z " style="stroke-width: 2.0; stroke: rgb(0,0,0); fill: rgb(255,142,0); " />
<path d="M 793.771,426.471 A1285.000,1285.000 0.000 0,1 890.223,368.896 L 878.360,346.890 A1310.000,1310.000 0.000 0,0 780.031,405.585 Z " style="stroke-width: 2.0; stroke: rgb(0,0,0); fill: rgb(227,255,0); " />
<path d="M 890.223,368.896 A1285.000,1285.000 0.000 0,1 956.301,335.690 L 945.723,313.039 A1310.000,1310.000 0.000 0,0 878.360,346.890 Z " style="stroke-width: 2.0; stroke: rgb(0,0,0); fill: rgb(0,255,57); " />
</g>
<path d="M 483.152,816.886 A1225.000,1225.000 0.000 0,1 981.688,390.055 L 960.532,344.751 A1275.000,1275.000 0.000 0,0 441.648,789.004 Z " style="stroke: none;  fill: none; " />
<g id="highlight0">
<path d="M 974.207,327.495 A1285.000,1285.000 0.000 0,1 1151.883,263.052 L 1145.110,238.987 A1310.000,1310.000 0.000 0,0 963.978,304.684 Z " style="stroke-width: 2.0; stroke: rgb(0,0,0); fill: rgb(255,142,0); " />
<path d="M 1151.883,263.052 A1285.000,1285.000 0.000 0,1 1269.630,235.819 L 1265.148,211.224 A1310.000,1310.000 0.000 0,0 1145.110,238.987 Z " style="stroke-width: 2.0; stroke: rgb(0,0,0); fill: rgb(255,0,0); " />
<path d="M 1269.630,235.819 A1285.000,1285.000 0.000 0,1 1383.747,220.269 L 1381.485,195.372 A1310.000,1310.000 0.000 0,0 1265.148,211.224 Z " style="stroke-width: 2.0; stroke: rgb(0,0,0); fill: rgb(227,255,0); " />
<path d="M 1383.747,220.269 A1285.000,1285.000 0.000 0,1 1441.924,216.313 L 1440.794,191.339 A1310.000,1310.000 0.000 0,0 1381.485,195.372 Z " style="stroke-width: 2.0; stroke: rgb(0,0,0); fill: rgb(85,255,0); " />
<path d="M 1441.924,216.313 A1285.000,1285.000 0.000 0,1 1480.308,215.151 L 1479.925,190.154 A1310.000,1310.000 0.000 0,0 1440.794,191.339 Z " style="stroke-width: 2.0; stroke: rgb(0,0,0); fill: rgb(0,255,57); " />
</g>
<path d="M 998.758,382.243 A1225.000,1225.000 0.000 0,1 1481.228,275.144 L 1480.462,225.150 A1275.000,1275.000 0.000 0,0 978.299,336.620 Z " style="stroke: none;  fill: rgb(255,0,255); " />
<g id="highlight0">
<path d="M 974.207,327.495 A1285.000,1285.000 0.000 0,1 1151.883,263.052 L 1145.110,238.987 A1310.000,1310.000 0.000 0,0 963.978,304.684 Z " style="stroke-width: 2.0; stroke: rgb(0,0,0); fill: rgb(255,142,0); " />
<path d="M 1151.883,263.052 A1285.000,1285.000 0.000 0,1 1269.630,235.819 L 1265.148,211.224 A1310.000,1310.000 0.000 0,0 1145.110,238.987 Z " style="stroke-width: 2.0; stroke: rgb(0,0,0); fill: rgb(255,0,0); " />
<path d="M 1269.630,235.819 A1285.000,1285.000 0.000 0,1 1383.747,220.269 L 1381.485,195.372 A1310.000,1310.000 0.000 0,0 1265.148,211.224 Z " style="stroke-width: 2.0; stroke: rgb(0,0,0); fill: rgb(227,255,0); " />
<path d="M 1383.747,220.269 A1285.000,1285.000 0.000 0,1 1441.924,216.313 L 1440.794,191.339 A1310.000,1310.000 0.000 0,0 1381.485,195.372 Z " style="stroke-width: 2.0; stroke: rgb(0,0,0); fill: rgb(85,255,0); " />
<path d="M 1441.924,216.313 A1285.000,1285.000 0.000 0,1 1480.308,215.151 L 1479.925,190.154 A1310.000,1310.000 0.000 0,0 1440.794,191.339 Z " style="stroke-width: 2.0; stroke: rgb(0,0,0); fill: rgb(0,255,57); " />
</g>
<path d="M 998.758,382.243 A1225.000,1225.000 0.000 0,1 1481.228,275.144 L 1480.462,225.150 A1275.000,1275.000 0.000 0,0 978.299,336.620 Z " style="stroke: none;  fill: none; " />
</g>
<g id="cellvalues">
</g>
<g id="cellvalues">
<path d="M 1555.399,2724.522 A 1225.775,1225.775 0.00 0,1 1518.8,2725.6 Q 1500.0,1500.0 1445.4,292.5 A 1208.775,1208.775 0.00 0,1 1481.5,291.4 Q 1500.0,1500.0 1555.4,2724.5 Z" style="stroke-width: 1.0;  stroke: rgb(0,0,0); fill: rgb(0,255,57);"/>
</g>
<g id="cellvalues">
<path d="M 1606.841,2721.110 A 1225.775,1225.775 0.00 0,1 1555.4,2724.5 Q 1500.0,1500.0 646.7,2356.2 A 1208.775,1208.775 0.00 0,1 611.5,2319.6 Q 1500.0,1500.0 1606.8,2721.1 Z" style="stroke-width: 1.0;  stroke: rgb(0,0,0); fill: rgb(0,255,57);"/>
</g>
<g id="cellvalues">
<path d="M 1926.030,2649.358 A 1225.775,1225.775 0.00 0,1 1873.4,2667.5 Q 1500.0,1500.0 1390.6,296.2 A 1208.775,1208.775 0.00 0,1 1445.4,292.5 Q 1500.0,1500.0 1926.0,2649.4 Z" style="stroke-width: 1.0;  stroke: rgb(0,0,0); fill: rgb(85,255,0);"/>
</g>
<g id="cellvalues">
<path d="M 1676.910,2712.942 A 1225.775,1225.775 0.00 0,1 1606.8,2721.1 Q 1500.0,1500.0 926.4,436.0 A 1208.775,1208.775 0.00 0,1 988.6,404.8 Q 1500.0,1500.0 1676.9,2712.9 Z" style="stroke-width: 1.0;  stroke: rgb(0,0,0); fill: rgb(0,255,57);"/>
</g>
<g id="cellvalues">
<path d="M 1754.362,2699.093 A 1225.775,1225.775 0.00 0,1 1676.9,2712.9 Q 1500.0,1500.0 446.2,907.8 A 1208.775,1208.775 0.00 0,1 486.4,841.4 Q 1500.0,1500.0 1754.4,2699.1 Z" style="stroke-width: 1.0;  stroke: rgb(0,0,0); fill: rgb(0,255,57);"/>
</g>
<g id="cellvalues">
<path d="M 2021.097,2609.496 A 1225.775,1225.775 0.00 0,1 1926.0,2649.4 Q 1500.0,1500.0 400.2,998.4 A 1208.775,1208.775 0.00 0,1 446.2,907.8 Q 1500.0,1500.0 2021.1,2609.5 Z" style="stroke-width: 1.0;  stroke: rgb(0,0,0); fill: rgb(85,255,0);"/>
</g>
<g id="cellvalues">
<path d="M 1855.514,2673.087 A 1225.775,1225.775 0.00 0,1 1754.4,2699.1 Q 1500.0,1500.0 300.7,1651.2 A 1208.775,1208.775 0.00 0,1 292.2,1548.5 Q 1500.0,1500.0 1855.5,2673.1 Z" style="stroke-width: 1.0;  stroke: rgb(0,0,0); fill: rgb(0,255,57);"/>
</g>
<g id="cellvalues">
<path d="M 2498.067,2211.608 A 1225.775,1225.775 0.00 0,1 2432.1,2296.1 Q 1500.0,1500.0 835.7,490.2 A 1208.775,1208.775 0.00 0,1 926.4,436.0 Q 1500.0,1500.0 2498.1,2211.6 Z" style="stroke-width: 1.0;  stroke: rgb(0,0,0); fill: rgb(227,255,0);"/>
</g>
<g id="cellvalues">
<path d="M 2557.774,2119.386 A 1225.775,1225.775 0.00 0,1 2498.1,2211.6 Q 1500.0,1500.0 1283.3,310.8 A 1208.775,1208.775 0.00 0,1 1390.6,296.2 Q 1500.0,1500.0 2557.8,2119.4 Z" style="stroke-width: 1.0;  stroke: rgb(0,0,0); fill: rgb(227,255,0);"/>
<path d="M 2118.346,2558.382 A 1225.775,1225.775 0.00 0,1 2021.1,2609.5 Q 1500.0,1500.0 319.1,1757.9 A 1208.775,1208.775 0.00 0,1 300.7,1651.2 Q 1500.0,1500.0 2118.3,2558.4 Z" style="stroke-width: 1.0;  stroke: rgb(0,0,0); fill: rgb(85,255,0);"/>
</g>
<g id="cellvalues">
<path d="M 2401.003,668.906 A 1225.775,1225.775 0.00 0,1 2475.1,757.2 Q 1500.0,1500.0 1172.5,336.4 A 1208.775,1208.775 0.00 0,1 1283.3,310.8 Q 1500.0,1500.0 2401.0,668.9 Z" style="stroke-width: 1.0;  stroke: rgb(0,0,0); fill: rgb(255,0,0);"/>
</g>
<g id="cellvalues">
<path d="M 2725.296,1465.722 A 1225.775,1225.775 0.00 0,1 2722.6,1587.8 Q 1500.0,1500.0 738.5,561.2 A 1208.775,1208.775 0.00 0,1 835.7,490.2 Q 1500.0,1500.0 2725.3,1465.7 Z" style="stroke-width: 1.0;  stroke: rgb(0,0,0); fill: rgb(255,142,0);"/>
</g>
<g id="cellvalues">
<path d="M 2309.813,579.823 A 1225.775,1225.775 0.00 0,1 2401.0,668.9 Q 1500.0,1500.0 645.1,645.4 A 1208.775,1208.775 0.00 0,1 738.5,561.2 Q 1500.0,1500.0 2309.8,579.8 Z" style="stroke-width: 1.0;  stroke: rgb(0,0,0); fill: rgb(255,0,0);"/>
</g>
<g id="cellvalues">
<path d="M 2618.057,2002.466 A 1225.775,1225.775 0.00 0,1 2557.8,2119.4 Q 1500.0,1500.0 352.8,1119.2 A 1208.775,1208.775 0.00 0,1 400.2,998.4 Q 1500.0,1500.0 2618.1,2002.5 Z" style="stroke-width: 1.0;  stroke: rgb(0,0,0); fill: rgb(227,255,0);"/>
</g>
<g id="cellvalues">
<path d="M 2666.719,1875.887 A 1225.775,1225.775 0.00 0,1 2618.1,2002.5 Q 1500.0,1500.0 354.8,1886.8 A 1208.775,1208.775 0.00 0,1 319.1,1757.9 Q 1500.0,1500.0 2666.7,1875.9 Z" style="stroke-width: 1.0;  stroke: rgb(0,0,0); fill: rgb(227,255,0);"/>
</g>
<g id="cellvalues">
<path d="M 2246.628,2472.148 A 1225.775,1225.775 0.00 0,1 2118.3,2558.4 Q 1500.0,1500.0 761.3,2456.8 A 1208.775,1208.775 0.00 0,1 646.7,2356.2 Q 1500.0,1500.0 2246.6,2472.1 Z" style="stroke-width: 1.0;  stroke: rgb(0,0,0); fill: rgb(85,255,0);"/>
</g>
<g id="cellvalues">
<path d="M 2710.394,1306.429 A 1225.775,1225.775 0.00 0,1 2725.3,1465.7 Q 1500.0,1500.0 313.0,1271.8 A 1208.775,1208.775 0.00 0,1 352.8,1119.2 Q 1500.0,1500.0 2710.4,1306.4 Z" style="stroke-width: 1.0;  stroke: rgb(0,0,0); fill: rgb(255,142,0);"/>
</g>
<g id="cellvalues">
<path d="M 2668.908,1130.977 A 1225.775,1225.775 0.00 0,1 2710.4,1306.4 Q 1500.0,1500.0 1005.4,397.0 A 1208.775,1208.775 0.00 0,1 1172.5,336.4 Q 1500.0,1500.0 2668.9,1131.0 Z" style="stroke-width: 1.0;  stroke: rgb(0,0,0); fill: rgb(255,142,0);"/>
</g>
<g id="cellvalues">
<path d="M 2594.301,947.704 A 1225.775,1225.775 0.00 0,1 2668.9,1131.0 Q 1500.0,1500.0 924.9,2563.2 A 1208.775,1208.775 0.00 0,1 761.3,2456.8 Q 1500.0,1500.0 2594.3,947.7 Z" style="stroke-width: 1.0;  stroke: rgb(0,0,0); fill: rgb(255,142,0);"/>
</g>
<g id="cellvalues">
<path d="M 2486.365,772.258 A 1225.775,1225.775 0.00 0,1 2594.3,947.7 Q 1500.0,1500.0 435.7,2073.1 A 1208.775,1208.775 0.00 0,1 354.8,1886.8 Q 1500.0,1500.0 2486.4,772.3 Z" style="stroke-width: 1.0;  stroke: rgb(0,0,0); fill: rgb(255,142,0);"/>
</g>
<g id="cellvalues">
<path d="M 2419.799,2310.244 A 1225.775,1225.775 0.00 0,1 2246.6,2472.1 Q 1500.0,1500.0 496.6,825.9 A 1208.775,1208.775 0.00 0,1 645.1,645.4 Q 1500.0,1500.0 2419.8,2310.2 Z" style="stroke-width: 1.0;  stroke: rgb(0,0,0); fill: rgb(85,255,0);"/>
</g>
<g id="cellvalues">
<path d="M 2095.134,428.394 A 1225.775,1225.775 0.00 0,1 2309.8,579.8 Q 1500.0,1500.0 291.6,1530.0 A 1208.775,1208.775 0.00 0,1 313.0,1271.8 Q 1500.0,1500.0 2095.1,428.4 Z" style="stroke-width: 1.0;  stroke: rgb(0,0,0); fill: rgb(255,0,0);"/>
</g>
<g id="cellvalues">
<path d="M 2721.141,1606.479 A 1225.775,1225.775 0.00 0,1 2666.7,1875.9 Q 1500.0,1500.0 1176.2,2664.6 A 1208.775,1208.775 0.00 0,1 924.9,2563.2 Q 1500.0,1500.0 2721.1,1606.5 Z" style="stroke-width: 1.0;  stroke: rgb(0,0,0); fill: rgb(227,255,0);"/>
</g>
<g id="cellvalues">
<path d="M 1828.355,319.023 A 1225.775,1225.775 0.00 0,1 2095.1,428.4 Q 1500.0,1500.0 599.0,2305.9 A 1208.775,1208.775 0.00 0,1 435.7,2073.1 Q 1500.0,1500.0 1828.4,319.0 Z" style="stroke-width: 1.0;  stroke: rgb(0,0,0); fill: rgb(255,0,0);"/>
</g>
<g id="cellvalues">
<path d="M 1500.000,274.225 A 1225.775,1225.775 0.00 0,1 1828.4,319.0 Q 1500.0,1500.0 1500.0,2708.8 A 1208.775,1208.775 0.00 0,1 1176.2,2664.6 Q 1500.0,1500.0 1500.0,274.2 Z" style="stroke-width: 1.0;  stroke: rgb(0,0,0); fill: rgb(255,0,0);"/>
</g>
<g id="plot0">
<g id="plot0-axis">
</g>
<text x="2132.2" y="278.9" style="fill: rgb(0,0,0); font-size: 48.0px; text-anchor: start" transform="rotate(296.4,2132.2,278.9)">A</text>
<text x="2758.4" y="2054.0" style="fill: rgb(0,0,0); font-size: 48.0px; text-anchor: start" transform="rotate(22.7,2758.4,2054.0)">D</text>
<text x="235.0" y="2038.9" style="fill: rgb(0,0,0); font-size: 48.0px; text-anchor: end" transform="rotate(337.9,235.0,2038.9)">H</text>
<text x="1177.2" y="163.4" style="fill: rgb(0,0,0); font-size: 48.0px; text-anchor: end" transform="rotate(77.5,1177.2,163.4)">G</text>
<text x="2231.0" y="2664.6" style="fill: rgb(0,0,0); font-size: 48.0px; text-anchor: start" transform="rotate(56.8,2231.0,2664.6)">C</text>
<text x="1687.8" y="2862.1" style="fill: rgb(0,0,0); font-size: 48.0px; text-anchor: start" transform="rotate(81.1,1687.8,2862.1)">B</text>
<text x="2827.3" y="1141.0" style="fill: rgb(0,0,0); font-size: 48.0px; text-anchor: start" transform="rotate(343.8,2827.3,1141.0)">E</text>
<text x="170.3" y="1149.8" style="fill: rgb(0,0,0); font-size: 48.0px; text-anchor: end" transform="rotate(15.8,170.3,1149.8)">J</text>
<text x="587.3" y="471.6" style="fill: rgb(0,0,0); font-size: 48.0px; text-anchor: end" transform="rotate(49.4,587.3,471.6)">F</text>
<text x="970.8" y="2769.1" style="fill: rgb(0,0,0); font-size: 48.0px; text-anchor: end" transform="rotate(293.7,970.8,2769.1)">I</text>
</g>
</svg>
